<svg width="98" height="65" viewBox="0 0 98 65" fill="none" xmlns="http://www.w3.org/2000/svg">
<g style="mix-blend-mode:multiply">
<path d="M69.0841 25.3089C66.2732 25.3089 63.9955 25.1947 62.0073 25.0195V15.8174C62.0073 13.395 61.6874 11.3001 61.0399 9.44144C63.0585 5.00036 66.6921 1.77811 70.4019 1.77811C76.2142 1.77811 75.8866 8.80156 75.8866 14.2862V25.0423C73.5709 25.248 71.2627 25.3089 69.0917 25.3089H69.0841ZM43.009 23.2446C40.8684 23.2446 38.6364 23.3969 36.3664 23.6711V14.2786C36.3664 11.1706 36.4502 8.733 36.5949 6.88192C38.4993 3.75107 41.455 1.77049 44.4182 1.77049C50.2305 1.77049 49.8267 8.79394 49.8267 14.2786V23.5112C47.8995 23.3512 45.698 23.2446 43.009 23.2446V23.2446ZM24.1858 41.6335V48.6493C24.1858 51.0032 24.0563 53.0371 23.7897 54.7967C22.7232 61.8964 14.9533 65.9337 8.60779 62.5667L8.49352 62.5058C3.45827 59.7863 0.906372 55.3985 0.906372 49.4644C0.906372 44.2311 3.47351 36.6668 15.7074 30.3442C18.305 29.0035 21.1769 27.8304 24.1706 26.8477V41.6411L24.1858 41.6335ZM87.9986 31.7763V21.9953C92.8282 19.5729 97.5283 16.2059 97.5283 9.06817H97.2159C97.2159 15.8707 92.5921 19.0853 87.9986 21.4697V15.8174C87.991 5.48789 82.3387 0.970642 73.708 0.970642C66.7683 0.970642 63.5384 4.03293 60.8799 9.0377C58.8536 3.46922 54.0926 0.970642 47.7243 0.970642C41.7521 0.970642 38.964 2.95122 36.6482 6.25727C36.892 3.68251 37.2729 2.41037 37.7376 2.18184V1.77811H19.0896V2.18184C23.4469 2.18184 24.1706 4.44428 24.1706 10.9802V26.3906C21.1007 27.3809 18.1603 28.5845 15.5017 29.9557C3.07739 36.3773 0.472168 44.1092 0.472168 49.4644C0.472168 57.3791 4.73042 61.2793 9.12578 63.2675C13.6507 65.3167 18.7925 65.4614 23.5383 63.9988C30.2342 61.9268 36.3588 57.2191 36.3588 47.6971V24.1206C38.6212 23.8387 40.8532 23.6864 43.0013 23.6864C45.698 23.6864 47.8919 23.793 49.8191 23.9606V32.3629C49.8191 38.8988 49.0954 41.2374 44.7382 41.2374V41.6411H67.0883V41.2374C62.731 41.2374 62.0073 38.8988 62.0073 32.3629V25.4689C63.9955 25.6365 66.2732 25.7508 69.0841 25.7508C71.2551 25.7508 73.5632 25.6898 75.879 25.4918V32.3629C75.7952 38.8988 75.0715 41.2374 70.798 41.2374V41.6411H93.0643V41.2374C88.7909 41.2374 87.9834 38.9826 87.9834 31.7839" fill="#003E93"/>
</g>
</svg>
